# xmcd CD database file
#
# Track frame offsets:
#	150
#	20688
#	26947
#	37036
#	53534
#	61913
#	69185
#	75278
#	93114
#	115327
#	137307
#	158293
#	173177
#
# Disc length: 2546 seconds
#
# Revision: 1
# Processed by: cddbd v1.5.2PL0 Copyright (c) Steve Scherf et al.
# Submitted via: CDex 1.40Release
#
DISCID=9209f00d
DTITLE=Андрей Монгуш и ансамбль САЛГАЛ - В Почёте
DYEAR=2004
DGENRE=New Age
TTITLE0=Тывам
TTITLE1=Дындгылдый
TTITLE2=Декей-оо
TTITLE3=Конгур-Бай
TTITLE4=Эки аъттар
TTITLE5=Узун хоюг
TTITLE6=Окур
TTITLE7=Кожамык
TTITLE8=Миннип чор
TTITLE9=Чайлаг
TTITLE10=Любовь
TTITLE11=Bonus 1
TTITLE12=Bonus 2
EXTD=YEAR: 2004 ID3G: 10
EXTT0=
EXTT1=
EXTT2=
EXTT3=
EXTT4=
EXTT5=
EXTT6=
EXTT7=
EXTT8=
EXTT9=
EXTT10=
EXTT11=
EXTT12=
PLAYORDER=
